<svg width="64" height="64" viewBox="0 0 64 64" fill="none" xmlns="http://www.w3.org/2000/svg">
<g filter="url(#filter0_d_22154_9227)">
<rect x="8" width="48" height="48" rx="24" fill="#FCFCFD"/>
<path fill-rule="evenodd" clip-rule="evenodd" d="M33.3941 20.8433C33.6647 20.5936 34.0864 20.6104 34.3362 20.881L36.49 23.2143C36.7258 23.4697 36.7258 23.8633 36.49 24.1187L34.3362 26.452C34.0865 26.7226 33.6647 26.7394 33.3941 26.4897C33.1236 26.24 33.1067 25.8182 33.3564 25.5477L34.4775 24.3331L28.0002 24.3331C27.632 24.3331 27.3335 24.0347 27.3335 23.6665C27.3335 23.2983 27.632 22.9998 28.0002 22.9998L34.4775 22.9998L33.3564 21.7854C33.1067 21.5148 33.1236 21.093 33.3941 20.8433Z" fill="#777E91"/>
</g>
<defs>
<filter id="filter0_d_22154_9227" x="0" y="0" width="64" height="64" filterUnits="userSpaceOnUse" color-interpolation-filters="sRGB">
<feFlood flood-opacity="0" result="BackgroundImageFix"/>
<feColorMatrix in="SourceAlpha" type="matrix" values="0 0 0 0 0 0 0 0 0 0 0 0 0 0 0 0 0 0 127 0" result="hardAlpha"/>
<feMorphology radius="8" operator="erode" in="SourceAlpha" result="effect1_dropShadow_22154_9227"/>
<feOffset dy="8"/>
<feGaussianBlur stdDeviation="8"/>
<feColorMatrix type="matrix" values="0 0 0 0 0.0583333 0 0 0 0 0.0583333 0 0 0 0 0.0583333 0 0 0 0.2 0"/>
<feBlend mode="multiply" in2="BackgroundImageFix" result="effect1_dropShadow_22154_9227"/>
<feBlend mode="normal" in="SourceGraphic" in2="effect1_dropShadow_22154_9227" result="shape"/>
</filter>
</defs>
</svg>
