<svg width="103" height="26" viewBox="0 0 103 26" fill="none" xmlns="http://www.w3.org/2000/svg">
<rect width="103" height="26" rx="4" fill="#45B36B"/>
<path d="M15.164 12.288C15.164 12.776 15.052 13.224 14.828 13.632C14.604 14.032 14.26 14.356 13.796 14.604C13.332 14.852 12.756 14.976 12.068 14.976H10.796V18H8.744V9.576H12.068C12.74 9.576 13.308 9.692 13.772 9.924C14.236 10.156 14.584 10.476 14.816 10.884C15.048 11.292 15.164 11.76 15.164 12.288ZM11.912 13.344C12.304 13.344 12.596 13.252 12.788 13.068C12.98 12.884 13.076 12.624 13.076 12.288C13.076 11.952 12.98 11.692 12.788 11.508C12.596 11.324 12.304 11.232 11.912 11.232H10.796V13.344H11.912ZM18.2483 9.576V14.616C18.2483 15.12 18.3723 15.508 18.6203 15.78C18.8683 16.052 19.2323 16.188 19.7123 16.188C20.1923 16.188 20.5603 16.052 20.8163 15.78C21.0723 15.508 21.2003 15.12 21.2003 14.616V9.576H23.2523V14.604C23.2523 15.356 23.0923 15.992 22.7723 16.512C22.4523 17.032 22.0203 17.424 21.4763 17.688C20.9403 17.952 20.3403 18.084 19.6763 18.084C19.0123 18.084 18.4163 17.956 17.8883 17.7C17.3683 17.436 16.9563 17.044 16.6523 16.524C16.3483 15.996 16.1963 15.356 16.1963 14.604V9.576H18.2483ZM28.9892 18L27.2372 14.82H26.7452V18H24.6932V9.576H28.1372C28.8012 9.576 29.3652 9.692 29.8292 9.924C30.3012 10.156 30.6532 10.476 30.8852 10.884C31.1172 11.284 31.2332 11.732 31.2332 12.228C31.2332 12.788 31.0732 13.288 30.7532 13.728C30.4412 14.168 29.9772 14.48 29.3612 14.664L31.3052 18H28.9892ZM26.7452 13.368H28.0172C28.3932 13.368 28.6732 13.276 28.8572 13.092C29.0492 12.908 29.1452 12.648 29.1452 12.312C29.1452 11.992 29.0492 11.74 28.8572 11.556C28.6732 11.372 28.3932 11.28 28.0172 11.28H26.7452V13.368ZM32.1733 13.776C32.1733 12.944 32.3533 12.204 32.7133 11.556C33.0733 10.9 33.5733 10.392 34.2133 10.032C34.8613 9.664 35.5933 9.48 36.4093 9.48C37.4093 9.48 38.2653 9.744 38.9773 10.272C39.6893 10.8 40.1653 11.52 40.4053 12.432H38.1493C37.9813 12.08 37.7413 11.812 37.4293 11.628C37.1253 11.444 36.7773 11.352 36.3853 11.352C35.7533 11.352 35.2413 11.572 34.8493 12.012C34.4573 12.452 34.2613 13.04 34.2613 13.776C34.2613 14.512 34.4573 15.1 34.8493 15.54C35.2413 15.98 35.7533 16.2 36.3853 16.2C36.7773 16.2 37.1253 16.108 37.4293 15.924C37.7413 15.74 37.9813 15.472 38.1493 15.12H40.4053C40.1653 16.032 39.6893 16.752 38.9773 17.28C38.2653 17.8 37.4093 18.06 36.4093 18.06C35.5933 18.06 34.8613 17.88 34.2133 17.52C33.5733 17.152 33.0733 16.644 32.7133 15.996C32.3533 15.348 32.1733 14.608 32.1733 13.776ZM48.958 9.576V18H46.906V14.532H43.714V18H41.662V9.576H43.714V12.876H46.906V9.576H48.958ZM55.6833 16.512H52.5393L52.0353 18H49.8873L52.9353 9.576H55.3113L58.3593 18H56.1873L55.6833 16.512ZM55.1553 14.928L54.1113 11.844L53.0793 14.928H55.1553ZM62.335 18.084C61.719 18.084 61.167 17.984 60.679 17.784C60.191 17.584 59.799 17.288 59.503 16.896C59.215 16.504 59.063 16.032 59.047 15.48H61.231C61.263 15.792 61.371 16.032 61.555 16.2C61.739 16.36 61.979 16.44 62.275 16.44C62.579 16.44 62.819 16.372 62.995 16.236C63.171 16.092 63.259 15.896 63.259 15.648C63.259 15.44 63.187 15.268 63.043 15.132C62.907 14.996 62.735 14.884 62.527 14.796C62.327 14.708 62.039 14.608 61.663 14.496C61.119 14.328 60.675 14.16 60.331 13.992C59.987 13.824 59.691 13.576 59.443 13.248C59.195 12.92 59.071 12.492 59.071 11.964C59.071 11.18 59.355 10.568 59.923 10.128C60.491 9.68 61.231 9.456 62.143 9.456C63.071 9.456 63.819 9.68 64.387 10.128C64.955 10.568 65.259 11.184 65.299 11.976H63.079C63.063 11.704 62.963 11.492 62.779 11.34C62.595 11.18 62.359 11.1 62.071 11.1C61.823 11.1 61.623 11.168 61.471 11.304C61.319 11.432 61.243 11.62 61.243 11.868C61.243 12.14 61.371 12.352 61.627 12.504C61.883 12.656 62.283 12.82 62.827 12.996C63.371 13.18 63.811 13.356 64.147 13.524C64.491 13.692 64.787 13.936 65.035 14.256C65.283 14.576 65.407 14.988 65.407 15.492C65.407 15.972 65.283 16.408 65.035 16.8C64.795 17.192 64.443 17.504 63.979 17.736C63.515 17.968 62.967 18.084 62.335 18.084ZM68.7218 9.576V18H66.6698V9.576H68.7218ZM77.7448 18H75.6928L72.2608 12.804V18H70.2088V9.576H72.2608L75.6928 14.796V9.576H77.7448V18ZM84.8243 12.24C84.6723 11.96 84.4523 11.748 84.1643 11.604C83.8843 11.452 83.5523 11.376 83.1683 11.376C82.5043 11.376 81.9723 11.596 81.5723 12.036C81.1723 12.468 80.9723 13.048 80.9723 13.776C80.9723 14.552 81.1803 15.16 81.5963 15.6C82.0203 16.032 82.6003 16.248 83.3363 16.248C83.8403 16.248 84.2643 16.12 84.6083 15.864C84.9603 15.608 85.2163 15.24 85.3763 14.76H82.7723V13.248H87.2363V15.156C87.0843 15.668 86.8243 16.144 86.4563 16.584C86.0963 17.024 85.6363 17.38 85.0763 17.652C84.5163 17.924 83.8843 18.06 83.1803 18.06C82.3483 18.06 81.6043 17.88 80.9483 17.52C80.3003 17.152 79.7923 16.644 79.4243 15.996C79.0643 15.348 78.8843 14.608 78.8843 13.776C78.8843 12.944 79.0643 12.204 79.4243 11.556C79.7923 10.9 80.3003 10.392 80.9483 10.032C81.5963 9.664 82.3363 9.48 83.1683 9.48C84.1763 9.48 85.0243 9.724 85.7123 10.212C86.4083 10.7 86.8683 11.376 87.0923 12.24H84.8243ZM93.6159 9.276L93.3759 15.024H91.6359L91.3959 9.276H93.6159ZM92.5359 18.096C92.1759 18.096 91.8799 17.992 91.6479 17.784C91.4239 17.568 91.3119 17.304 91.3119 16.992C91.3119 16.672 91.4239 16.404 91.6479 16.188C91.8799 15.972 92.1759 15.864 92.5359 15.864C92.8879 15.864 93.1759 15.972 93.3999 16.188C93.6319 16.404 93.7479 16.672 93.7479 16.992C93.7479 17.304 93.6319 17.568 93.3999 17.784C93.1759 17.992 92.8879 18.096 92.5359 18.096Z" fill="#FCFCFD"/>
</svg>
